<svg xmlns="http://www.w3.org/2000/svg" width="667.03" height="837.967"><path d="M-77.041-38.995v.001l.002.001.002.002h0l.01.007.008.007.003.001.002.002.005.004.006.005.003.002.002.002.005.004.003.002.004.003.008.006.011.009.003.002h0l.002.002.002.001.002.001.007.006.008.007.008.005.003.003.008.006.004.003.005.004.002.001.004.004-.002.001-.002.002-.001.001-.004.003-.002.001-.001.002-.004.002-.007.006-.002.001h0l-.002.002-.008.006-.003.003-.003.002-.004.003-.004.003-.002.001-.001.002-.003.001-.001.002h0l-.002.001-.001.001-.003.002-.002.002-.007.005-.005.004-.004.003-.002.002h-.001l-.001.001-.004.003-.001.002h-.003v.001l-.009.006-.03.024v-.01l.004-.013-.003-.001v-.017l-.003-.001h-.002l-.001-.001v-.006h.003l.009-.001v-.009l-.005-.011-.002-.003v-.003l-.001-.004-.003-.002-.002-.002h-.001v.004h-.003l-.002-.002v-.002l-.003-.003v-.001h-.004l-.005-.009v-.002l-.004-.009h0l-.003-.001h-.007l-.005-.001-.008-.003-.003-.001-.008-.005-.002-.002-.001-.004-.002-.002-.007-.007-.003-.003-.001-.004-.002-.002.007-.005.003-.003.005-.004.004-.002.002-.002.007-.006.006-.004.005-.004.003-.003.006-.004.004-.003h0l.004-.003v-.001l.01-.006.001-.002h.001l.01-.009z" transform="matrix(3131.9581 0 0 4095.2467 241540.57 159695.56)" fill="#7f0001" stroke="#000" stroke-width=".001" stroke-linecap="round" stroke-linejoin="round"/></svg>
